# xmcd CD Database Entry
#
# Track frame offsets:
# 150
# 16485
# 29806
# 46309
# 59853
# 78850
# 90533
# 109413
# 127748
# 142661
# 162703
# 181754
#
# Disc length: 2629 seconds
#
# Revision: 1
# Processed by: cddbd v1.4PL0 Copyright (c) Steve Scherf et al.
# Submitted via: tcd 2.0b
#
DISCID=9e0a430c
DTITLE=Cravin' Dogs - Roots Rock Paper Scissors
DYEAR=1900
DGENRE=
TTITLE0=Blue
TTITLE1=Frank Lloyd Wright
TTITLE2=River Run
TTITLE3=Fair Weather Blues
TTITLE4=The 1980s ("Look Inside" Was My Mantra)
TTITLE5=95% Dark Matter
TTITLE6=Hell On Earth
TTITLE7=Planethead
TTITLE8=Western Girl
TTITLE9=Who Cast The Die
TTITLE10=Fall Over Into Love
TTITLE11=Untitled
EXTD=
EXTT0=
EXTT1=
EXTT2=
EXTT3=
EXTT4=
EXTT5=
EXTT6=
EXTT7=
EXTT8=
EXTT9=
EXTT10=
EXTT11=
PLAYORDER=
